name C:\Users\u0101727\Documents\MyRepositories\upper-imu-dc\OpenSim\subject0\MA\ResultsMA\grid_4nodes_9dim\angles_23.mot
datacolumns 10
datarows 42
range 2350.01000000 2350.42000000
endheader 
time	clav_prot	clav_elev	scapula_abduction	scapula_elevation	scapula_upward_rot	scapula_winging	plane_elv	shoulder_elv	axial_rot	
       2350.01000000	        -50.00000000	         10.00000000	         15.00000000	         10.00000000	         30.00000000	        -10.00000000	        -30.00000000	         63.33333333	         90.00000000	
       2350.02000000	        -38.33333333	         10.00000000	         15.00000000	         10.00000000	         30.00000000	        -10.00000000	        -30.00000000	         63.33333333	         90.00000000	
       2350.03000000	        -26.66666667	         10.00000000	         15.00000000	         10.00000000	         30.00000000	        -10.00000000	        -30.00000000	         63.33333333	         90.00000000	
       2350.04000000	        -15.00000000	         10.00000000	         15.00000000	         10.00000000	         30.00000000	        -10.00000000	        -30.00000000	         63.33333333	         90.00000000	
       2350.05000000	        -50.00000000	         20.00000000	         15.00000000	         10.00000000	         30.00000000	        -10.00000000	        -30.00000000	         63.33333333	         90.00000000	
       2350.06000000	        -38.33333333	         20.00000000	         15.00000000	         10.00000000	         30.00000000	        -10.00000000	        -30.00000000	         63.33333333	         90.00000000	
       2350.07000000	        -26.66666667	         20.00000000	         15.00000000	         10.00000000	         30.00000000	        -10.00000000	        -30.00000000	         63.33333333	         90.00000000	
       2350.08000000	        -15.00000000	         20.00000000	         15.00000000	         10.00000000	         30.00000000	        -10.00000000	        -30.00000000	         63.33333333	         90.00000000	
       2350.09000000	        -50.00000000	        -10.00000000	        -40.00000000	        -10.00000000	         60.00000000	        -10.00000000	        -30.00000000	         63.33333333	         90.00000000	
       2350.10000000	        -38.33333333	        -10.00000000	        -40.00000000	        -10.00000000	         60.00000000	        -10.00000000	        -30.00000000	         63.33333333	         90.00000000	
       2350.11000000	        -26.66666667	        -10.00000000	        -40.00000000	        -10.00000000	         60.00000000	        -10.00000000	        -30.00000000	         63.33333333	         90.00000000	
       2350.12000000	        -15.00000000	        -10.00000000	        -40.00000000	        -10.00000000	         60.00000000	        -10.00000000	        -30.00000000	         63.33333333	         90.00000000	
       2350.13000000	        -50.00000000	          0.00000000	        -40.00000000	        -10.00000000	         60.00000000	        -10.00000000	        -30.00000000	         63.33333333	         90.00000000	
       2350.14000000	        -38.33333333	          0.00000000	        -40.00000000	        -10.00000000	         60.00000000	        -10.00000000	        -30.00000000	         63.33333333	         90.00000000	
       2350.15000000	        -26.66666667	          0.00000000	        -40.00000000	        -10.00000000	         60.00000000	        -10.00000000	        -30.00000000	         63.33333333	         90.00000000	
       2350.16000000	        -15.00000000	          0.00000000	        -40.00000000	        -10.00000000	         60.00000000	        -10.00000000	        -30.00000000	         63.33333333	         90.00000000	
       2350.17000000	        -50.00000000	         10.00000000	        -40.00000000	        -10.00000000	         60.00000000	        -10.00000000	        -30.00000000	         63.33333333	         90.00000000	
       2350.18000000	        -38.33333333	         10.00000000	        -40.00000000	        -10.00000000	         60.00000000	        -10.00000000	        -30.00000000	         63.33333333	         90.00000000	
       2350.19000000	        -26.66666667	         10.00000000	        -40.00000000	        -10.00000000	         60.00000000	        -10.00000000	        -30.00000000	         63.33333333	         90.00000000	
       2350.20000000	        -15.00000000	         10.00000000	        -40.00000000	        -10.00000000	         60.00000000	        -10.00000000	        -30.00000000	         63.33333333	         90.00000000	
       2350.21000000	        -50.00000000	         20.00000000	        -40.00000000	        -10.00000000	         60.00000000	        -10.00000000	        -30.00000000	         63.33333333	         90.00000000	
       2350.22000000	        -38.33333333	         20.00000000	        -40.00000000	        -10.00000000	         60.00000000	        -10.00000000	        -30.00000000	         63.33333333	         90.00000000	
       2350.23000000	        -26.66666667	         20.00000000	        -40.00000000	        -10.00000000	         60.00000000	        -10.00000000	        -30.00000000	         63.33333333	         90.00000000	
       2350.24000000	        -15.00000000	         20.00000000	        -40.00000000	        -10.00000000	         60.00000000	        -10.00000000	        -30.00000000	         63.33333333	         90.00000000	
       2350.25000000	        -50.00000000	        -10.00000000	        -21.66666667	        -10.00000000	         60.00000000	        -10.00000000	        -30.00000000	         63.33333333	         90.00000000	
       2350.26000000	        -38.33333333	        -10.00000000	        -21.66666667	        -10.00000000	         60.00000000	        -10.00000000	        -30.00000000	         63.33333333	         90.00000000	
       2350.27000000	        -26.66666667	        -10.00000000	        -21.66666667	        -10.00000000	         60.00000000	        -10.00000000	        -30.00000000	         63.33333333	         90.00000000	
       2350.28000000	        -15.00000000	        -10.00000000	        -21.66666667	        -10.00000000	         60.00000000	        -10.00000000	        -30.00000000	         63.33333333	         90.00000000	
       2350.29000000	        -50.00000000	          0.00000000	        -21.66666667	        -10.00000000	         60.00000000	        -10.00000000	        -30.00000000	         63.33333333	         90.00000000	
       2350.30000000	        -38.33333333	          0.00000000	        -21.66666667	        -10.00000000	         60.00000000	        -10.00000000	        -30.00000000	         63.33333333	         90.00000000	
       2350.31000000	        -26.66666667	          0.00000000	        -21.66666667	        -10.00000000	         60.00000000	        -10.00000000	        -30.00000000	         63.33333333	         90.00000000	
       2350.32000000	        -15.00000000	          0.00000000	        -21.66666667	        -10.00000000	         60.00000000	        -10.00000000	        -30.00000000	         63.33333333	         90.00000000	
       2350.33000000	        -50.00000000	         10.00000000	        -21.66666667	        -10.00000000	         60.00000000	        -10.00000000	        -30.00000000	         63.33333333	         90.00000000	
       2350.34000000	        -38.33333333	         10.00000000	        -21.66666667	        -10.00000000	         60.00000000	        -10.00000000	        -30.00000000	         63.33333333	         90.00000000	
       2350.35000000	        -26.66666667	         10.00000000	        -21.66666667	        -10.00000000	         60.00000000	        -10.00000000	        -30.00000000	         63.33333333	         90.00000000	
       2350.36000000	        -15.00000000	         10.00000000	        -21.66666667	        -10.00000000	         60.00000000	        -10.00000000	        -30.00000000	         63.33333333	         90.00000000	
       2350.37000000	        -50.00000000	         20.00000000	        -21.66666667	        -10.00000000	         60.00000000	        -10.00000000	        -30.00000000	         63.33333333	         90.00000000	
       2350.38000000	        -38.33333333	         20.00000000	        -21.66666667	        -10.00000000	         60.00000000	        -10.00000000	        -30.00000000	         63.33333333	         90.00000000	
       2350.39000000	        -26.66666667	         20.00000000	        -21.66666667	        -10.00000000	         60.00000000	        -10.00000000	        -30.00000000	         63.33333333	         90.00000000	
       2350.40000000	        -15.00000000	         20.00000000	        -21.66666667	        -10.00000000	         60.00000000	        -10.00000000	        -30.00000000	         63.33333333	         90.00000000	
       2350.41000000	        -50.00000000	        -10.00000000	         -3.33333333	        -10.00000000	         60.00000000	        -10.00000000	        -30.00000000	         63.33333333	         90.00000000	
       2350.42000000	        -38.33333333	        -10.00000000	         -3.33333333	        -10.00000000	         60.00000000	        -10.00000000	        -30.00000000	         63.33333333	         90.00000000	
